<svg width="32" height="28" viewBox="0 0 32 28" fill="none" xmlns="http://www.w3.org/2000/svg">
<path fill-rule="evenodd" clip-rule="evenodd" d="M22.5487 3.14368C22.8783 2.45248 23.7438 0.926971 24.9662 0.919931C25.3144 0.918011 25.6 1.21177 25.6 1.55993V2.95743C26.6016 3.31135 27.7459 4.47759 28.3725 6.57743C28.5779 7.13935 29.0555 7.37301 29.06 7.37493C29.3442 7.50101 29.4968 7.81349 29.4212 8.11493C29.3035 8.58597 28.8198 10.5199 25.6 10.5199H24.96C25.1635 11.0307 25.6 12.1884 25.6 13.7199C25.6 15.663 24.7903 17.3923 23.1512 18.9987L25.04 25.0574C26.2112 25.3877 26.6966 26.1617 26.8675 27.0199C26.8765 27.0667 26.8806 27.1139 26.88 27.1599C26.8755 27.5055 26.6003 27.7999 26.2387 27.7999H24.4C23.5648 27.7999 22.8305 27.3243 22.3025 26.6312C21.8507 26.0379 20.8331 24.0543 19.9 22.1599L17.8562 17.9224C17.7027 17.6037 17.3187 17.4714 17.0025 17.6237C16.6838 17.7766 16.5501 18.16 16.7037 18.4787L18.3625 21.9199C17.7449 23.7049 15.7888 24.5999 14.72 24.5999H15.36C16.64 24.5999 17.92 25.2399 17.92 27.1599C17.92 27.5132 17.6333 27.7999 17.28 27.7999H7.68C6.64735 27.7999 5.77098 27.1792 5.36875 26.2962C4.79683 26.8276 4.03727 27.1599 3.2 27.1599C1.44031 27.1599 0 25.7196 0 23.9599C0 20.9614 0.84196 18.9032 1.7075 17.6049C2.57304 16.3066 3.51125 15.7312 3.51125 15.7312C3.61511 15.6667 3.73526 15.6333 3.8575 15.6349C3.99746 15.6371 4.13286 15.685 4.24296 15.7714C4.35307 15.8579 4.43181 15.978 4.46712 16.1134C4.50244 16.2489 4.49238 16.3922 4.43849 16.5213C4.3846 16.6505 4.28985 16.7585 4.16875 16.8287C4.16875 16.8287 3.50696 17.2132 2.7725 18.3149C2.03804 19.4166 1.28 21.1985 1.28 23.9599C1.28 25.0278 2.13217 25.8799 3.2 25.8799C4.26783 25.8799 5.12 25.0278 5.12 23.9599V21.3999C5.12 16.5999 8.17024 13.9599 10.88 12.4399C11.8594 11.8905 12.878 11.4875 13.8419 11.1061C15.5448 10.4322 17.0769 9.82597 17.92 8.59993C18.0784 8.36952 18.2314 8.14533 18.3801 7.92744C19.7062 5.98418 20.6902 4.54222 22.1237 3.65368C22.2101 3.58776 22.3021 3.52857 22.4 3.47993C22.4 3.47993 22.4464 3.34272 22.5487 3.14368ZM26.8462 12.9687C27.3602 12.6903 27.9526 12.4399 28.8 12.4399C30.3904 12.4399 31.1034 13.4286 31.3312 14.1774C31.3504 14.2389 31.36 14.2998 31.36 14.3599C31.3613 14.7017 31.0823 14.9999 30.7175 14.9999H28.8C28.8 14.9999 27.8329 16.2824 26.1337 17.0312C26.624 15.9797 26.88 14.8745 26.88 13.7199C26.88 13.4588 26.8661 13.2106 26.8462 12.9687Z" fill="black"/>
</svg>
