<svg width="29" height="30" viewBox="0 0 29 30" fill="none" xmlns="http://www.w3.org/2000/svg">
<path d="M2.48055 11.7278C1.33055 12.7703 0.560547 14.2928 0.560547 17.1253V27.0253C0.560547 27.8528 1.10805 29.0803 2.62055 29.0803H5.84555L5.84055 28.4353C5.83305 27.6403 5.50805 26.2428 4.40055 25.8503V23.2528C5.86805 22.7203 7.34305 21.4903 7.69305 21.1003C8.39555 20.4478 11.738 20.8578 14.6405 21.6378L14.643 27.0728C14.7005 27.8803 15.3255 29.0803 16.803 29.0803H19.718L19.758 28.4828C19.7705 28.3403 19.8355 27.0478 19.123 26.2853C18.9405 26.0903 18.723 25.9453 18.4805 25.8553V21.6578C19.163 21.0403 21.108 19.0928 21.6855 16.5553C21.963 15.3103 22.923 11.5828 23.0755 10.9953C23.153 10.9028 23.5655 10.5203 25.008 10.5203C26.123 10.5203 27.058 9.88527 27.638 8.73277C27.6555 8.69777 27.658 8.69277 28.033 7.76527L28.283 7.14527L25.2555 6.06527C25.183 5.13527 24.6155 3.87777 22.7755 3.52277C22.883 3.11277 22.9605 2.54527 22.9605 1.56027V0.530273L22.0355 0.987774C21.928 1.04027 19.3305 2.33777 18.0355 3.98527C18.0355 3.98527 17.468 4.68777 17.448 4.71527C17.383 4.80027 16.793 5.60027 16.7155 5.71277C16.6705 5.77027 15.863 6.99277 15.5155 7.65527C15.3855 7.93027 15.223 8.19277 15.0305 8.43777C14.0555 9.69527 12.628 9.86277 12.068 9.88027C12.073 9.96027 12.063 10.3703 12.063 10.3703C11.8505 11.9828 11.0555 13.2778 10.5305 14.1353C10.443 14.2753 10.2805 14.5428 10.198 14.7003L10.038 17.1628L7.57555 16.2128L7.55305 16.2028L7.52805 16.1928C6.22055 15.6253 5.85055 13.9028 5.67555 12.4678C5.67055 12.4253 5.14805 9.54777 6.16805 9.40777C6.21305 9.40777 7.12305 8.99527 7.07805 12.3278C7.26805 13.8903 7.50305 14.7853 8.03805 15.0178L8.87305 15.3403L8.93305 14.4328C8.94305 14.2778 9.23055 13.8078 9.44055 13.4628C9.93805 12.6528 10.618 11.5453 10.7955 10.2028L10.8005 10.1178C10.8005 7.51527 8.72305 5.40027 6.16805 5.40027C3.70055 5.40027 1.84055 7.12277 1.84055 9.40777C1.84055 9.40777 1.81805 11.2828 2.48055 11.7278Z" fill="black"/>
</svg>
