<svg width="34" height="18" viewBox="0 0 34 18" fill="none" xmlns="http://www.w3.org/2000/svg">
<path d="M21.48 0.959961C21.105 0.959961 20.78 1.10246 20.54 1.37246C20.1275 1.83746 20.075 2.55246 20.1225 3.27496C19.185 2.99246 17.35 2.46746 13.955 1.61996C9.00498 0.382461 5.78998 0.954961 3.70248 3.50246C3.40248 3.31996 2.63498 2.79746 2.21248 1.95246C2.10748 1.73746 1.88998 1.59746 1.64998 1.59246C1.42498 1.58746 1.21248 1.70246 1.09248 1.89246C0.972476 2.08496 0.964976 2.32496 1.06748 2.52746C1.61248 3.61496 2.50498 4.26746 2.96998 4.55246C-0.0925233 10.7075 1.62998 14.7025 2.51748 16.135C2.78998 16.575 3.49748 17.6 4.19998 17.6C4.87998 17.6 5.22248 16.9875 5.52748 16.4475C5.76248 16.0325 6.02748 15.56 6.38498 15.395C9.31248 14.055 14.0125 14.065 18.0775 15.42C18.895 15.6925 19.585 16.1325 20.25 16.5575C21.09 17.095 21.8825 17.6 22.76 17.6C22.98 17.6 23.185 17.51 23.34 17.3475C23.6325 17.0375 23.725 16.5075 23.67 15.45C23.655 15.145 23.7075 14.8525 23.8075 14.5775C21.3875 14.5325 18.5075 13.6875 17.6625 10.735C17.5675 10.395 17.765 10.04 18.105 9.94246C18.4425 9.84996 18.8 10.045 18.8975 10.385C19.775 13.46 23.62 13.385 25.1725 13.2225C25.2475 13.195 25.32 13.165 25.3975 13.1475C26.645 12.84 27.54 12.6075 28.06 12.455C29.76 11.955 30.99 11.03 31.57 10.33C32.07 9.72996 32.62 8.82746 32.6425 8.78996L33.055 7.20996L32.865 6.96746C32.8125 6.89996 31.545 5.29996 28.7525 4.20496C26.5525 3.33996 24.9175 3.01496 24.3425 2.91996C23.4 1.99246 22.19 0.959961 21.48 0.959961ZM24.8925 5.54746C25.485 5.54746 25.9625 6.02496 25.9625 6.61746C25.9625 7.20996 25.4825 7.68746 24.8925 7.68746C24.3025 7.68746 23.8225 7.20996 23.8225 6.61746C23.8225 6.02746 24.3 5.54746 24.8925 5.54746Z" fill="black"/>
</svg>
