<svg width="30" height="30" viewBox="0 0 30 30" fill="none" xmlns="http://www.w3.org/2000/svg">
<path d="M12.7605 0.280273C12.5755 0.280273 11.9705 0.312773 11.8305 0.325274C5.36046 0.812773 0.482957 6.49527 0.955457 12.9903C1.26046 17.2703 3.90796 20.9928 7.59296 22.8178L7.34046 25.2678C6.64296 25.3103 5.47796 25.4453 4.47546 25.9478C4.15796 26.1053 4.03046 26.4903 4.18796 26.8053C4.34546 27.1228 4.73046 27.2503 5.04546 27.0928C6.07796 26.5778 7.86796 26.5228 7.93796 26.5203C7.93796 26.5228 7.94046 26.5228 7.94046 26.5203C7.94046 26.5203 7.94796 26.5203 7.95046 26.5203C7.95296 26.5203 7.95796 26.5203 7.96046 26.5203H9.24046C9.47046 26.5228 9.68546 26.4028 9.80296 26.2028C9.91796 26.0028 9.91796 25.7578 9.80296 25.5578C9.68546 25.3578 9.47046 25.2378 9.24046 25.2403H8.63046L8.82796 23.3303C9.69796 23.6453 10.6105 23.8628 11.558 23.9578C11.7605 23.9778 11.958 23.9778 12.158 23.9878L11.8205 27.1878C11.1205 27.2303 9.95796 27.3653 8.95296 27.8678C8.63796 28.0253 8.51046 28.4103 8.66796 28.7253C8.82546 29.0428 9.21046 29.1703 9.52796 29.0128C10.578 28.4878 12.4405 28.4403 12.4405 28.4403H13.7205C13.9505 28.4428 14.1655 28.3228 14.283 28.1228C14.398 27.9228 14.398 27.6778 14.283 27.4778C14.1655 27.2778 13.9505 27.1578 13.7205 27.1603H13.1105L13.4405 24.0103C13.443 24.0003 13.443 23.9928 13.443 23.9828C14.4055 23.9178 15.3455 23.7278 16.2555 23.4203L23.3405 25.6728C23.7555 25.8053 24.1955 25.8703 24.6555 25.8703C24.968 25.8703 25.293 25.8428 25.628 25.7803C27.3055 25.4253 28.5855 24.3378 29.0505 22.8703L29.2405 22.2628L21.793 19.8303C21.7755 19.9728 21.723 20.1103 21.6105 20.2178C21.4155 20.4078 21.188 20.6003 20.958 20.7728C19.3105 22.0553 17.7805 22.6803 16.2905 22.6803C12.128 22.6803 8.61046 19.0203 8.61046 14.6878C8.61046 14.5403 8.63296 14.2528 8.81046 13.4728C8.74546 13.2978 8.68546 13.1203 8.63296 12.9403C8.63046 12.9253 8.63296 12.9078 8.63046 12.8928C8.62546 12.8753 8.61796 12.8578 8.61296 12.8403C8.32796 11.4053 9.04546 9.85777 10.263 9.30027C10.583 9.15277 10.9655 9.29277 11.1105 9.61277C11.258 9.93527 11.118 10.3153 10.798 10.4628C10.188 10.7428 9.67046 11.6753 9.87546 12.6203L9.87796 12.6228C10.673 15.3928 13.483 17.5603 16.2905 17.5603C16.7055 17.5603 17.0055 17.4803 17.2305 17.3203C15.2105 15.4878 12.7905 13.2828 12.0305 12.5753C12.703 12.8953 13.4655 13.0753 14.268 13.0753C14.743 13.0753 15.203 13.0053 15.6405 12.8878V14.4428L16.3605 14.3503C18.5605 14.0653 20.383 12.6353 21.088 10.6828C21.098 10.6728 21.1605 10.6103 21.1605 10.3853L21.1405 10.5503C21.283 10.0128 21.383 9.44277 21.4005 8.85027V8.82027C21.3755 7.15527 20.5555 5.68527 19.293 4.70027C18.3205 2.14027 16.4005 0.622773 13.703 0.327774C13.5505 0.312773 12.9455 0.280273 12.7605 0.280273ZM16.9205 4.96777C18.7555 5.50527 20.0855 7.00027 20.118 8.83027C20.103 9.29277 20.0255 9.75527 19.9055 10.2078L19.9005 10.2153C19.4555 11.4903 18.333 12.4778 16.9205 12.8878V4.96777ZM13.4005 6.04027C13.9305 6.04027 14.3605 6.47027 14.3605 7.00027C14.3605 7.53027 13.9305 7.96027 13.4005 7.96027C12.8705 7.96027 12.4405 7.53027 12.4405 7.00027C12.4405 6.47027 12.8705 6.04027 13.4005 6.04027ZM15.6405 8.39277V11.4803C15.208 11.6453 14.7655 11.7953 14.268 11.7953C13.943 11.7953 13.6705 11.6678 13.3705 11.5953L15.6405 8.39277ZM9.95046 15.5503C10.3705 18.7978 13.1005 21.4003 16.2905 21.4003C17.4855 21.4003 18.758 20.8628 20.1805 19.7578C20.323 19.6478 20.4555 19.5353 20.5805 19.4228L19.413 19.0503L19.023 18.9253L18.193 18.1828C18.183 18.1953 18.178 18.2078 18.1655 18.2203C17.6905 18.6353 17.078 18.8403 16.2905 18.8403C13.838 18.8403 11.4555 17.5303 9.95046 15.5503ZM16.258 24.7628C16.1205 24.8053 15.9805 24.8353 15.843 24.8728L19.878 27.2028C20.563 27.6003 21.3255 27.8028 22.1005 27.8028C22.493 27.8028 22.888 27.7503 23.278 27.6478C23.703 27.5328 24.1005 27.3603 24.463 27.1378C23.943 27.1203 23.433 27.0453 22.9555 26.8928L16.258 24.7628Z" fill="black"/>
</svg>
